<?xml version="1.0" standalone="no"?>
<!DOCTYPE svg PUBLIC "-//W3C//DTD SVG 20010904//EN"
 "http://www.w3.org/TR/2001/REC-SVG-20010904/DTD/svg10.dtd">
<svg version="1.0" xmlns="http://www.w3.org/2000/svg"
 width="118.000000pt" height="29.000000pt" viewBox="0 0 118.000000 29.000000"
 preserveAspectRatio="xMidYMid meet">

<g transform="translate(0.000000,29.000000) scale(0.100000,-0.100000)"
fill="#000000" stroke="none">
<path d="M606 204 c-10 -77 -8 -136 6 -132 7 3 13 25 13 54 1 27 5 66 10 87 6
30 5 37 -7 37 -11 0 -17 -15 -22 -46z"/>
<path d="M887 168 c-5 -76 2 -114 17 -90 3 5 8 46 12 90 6 69 5 82 -8 82 -12
0 -16 -18 -21 -82z"/>
<path d="M1016 223 c-11 -57 -10 -147 2 -151 7 -2 12 2 12 8 0 10 4 9 15 0 37
-31 88 34 70 89 -8 26 -42 36 -61 20 -14 -11 -15 -9 -12 21 4 41 -18 53 -26
13z m69 -64 c12 -19 -4 -61 -23 -57 -30 6 -28 68 2 68 8 0 18 -5 21 -11z"/>
<path d="M952 228 c6 -18 25 -20 31 -3 5 10 0 15 -14 15 -12 0 -19 -5 -17 -12z"/>
<path d="M390 206 c0 -8 -6 -17 -12 -20 -10 -4 -10 -8 -2 -11 8 -4 10 -20 7
-43 -6 -41 14 -69 42 -58 19 7 20 26 0 26 -10 0 -15 10 -15 34 0 26 5 35 23
41 19 6 19 8 5 12 -10 2 -18 11 -18 19 0 8 -7 14 -15 14 -8 0 -15 -6 -15 -14z"/>
<path d="M809 205 c-5 -114 3 -144 35 -132 20 8 21 27 1 27 -10 0 -15 11 -15
35 0 24 5 35 15 35 8 0 15 5 15 10 0 6 -4 10 -10 10 -5 0 -10 7 -10 15 0 8 -7
15 -15 15 -8 0 -15 -7 -16 -15z"/>
<path d="M100 191 c-8 -6 -18 -7 -23 -4 -16 9 -27 -20 -27 -70 0 -62 23 -59
30 4 4 31 10 45 23 47 14 3 17 -4 17 -48 0 -60 23 -67 28 -7 3 37 24 63 42 52
6 -4 8 -22 4 -44 -4 -25 -2 -41 6 -46 15 -9 16 -7 23 47 7 52 -12 85 -42 72
-20 -8 -32 -8 -51 0 -8 3 -22 2 -30 -3z"/>
<path d="M278 193 c-32 -8 -21 -30 12 -25 22 3 30 0 30 -11 0 -10 -11 -17 -32
-19 -28 -2 -34 -8 -36 -30 -3 -29 -2 -30 53 -33 37 -2 45 9 45 62 0 32 -5 45
-19 53 -20 10 -25 11 -53 3z m42 -77 c0 -14 -29 -31 -38 -22 -2 3 -2 12 1 21
8 19 37 20 37 1z"/>
<path d="M511 191 c-8 -5 -20 -7 -26 -5 -8 3 -14 -13 -18 -48 -11 -84 -9 -108
8 -108 9 0 15 9 15 25 0 21 4 25 23 20 29 -7 46 5 56 42 15 53 -21 98 -58 74z
m29 -51 c0 -33 -24 -50 -42 -32 -8 8 -8 18 0 37 16 36 42 33 42 -5z"/>
<path d="M948 138 c-4 -48 4 -79 17 -67 2 3 7 31 11 62 6 48 4 57 -9 57 -11 0
-16 -14 -19 -52z"/>
</g>
</svg>
